<svg xmlns="http://www.w3.org/2000/svg" width="967" height="1134" viewBox="0 0 967 1134" version="1.1">
	<path d="M 473.230 1.743 C 466.018 4.711, 458.067 11.328, 444.348 25.781 C 428.226 42.766, 380.497 89.169, 328.488 138.423 C 205.455 254.937, 151.199 310.954, 102.613 371.626 C 45.794 442.579, 12.849 518.919, 2.331 604 C 0.077 622.236, -0.223 675.953, 1.826 694.500 C 10.734 775.152, 40.274 853.677, 89.281 926.978 C 160.012 1032.773, 259.980 1101.200, 378.500 1124.946 C 410.459 1131.349, 441.383 1133.997, 484 1133.980 C 534.526 1133.959, 567.665 1130.331, 607.934 1120.412 C 742.095 1087.364, 850.353 995.294, 917.071 857.501 C 945.552 798.678, 962.715 735.939, 965.765 679.500 C 966.290 669.785, 966.623 667.637, 967.084 671 C 967.422 673.475, 967.694 664.025, 967.687 650 C 967.680 635.975, 967.408 626.975, 967.084 630 C 966.585 634.651, 966.382 633.571, 965.768 623 C 962.770 571.361, 948.007 516.273, 923.556 465.482 C 898.999 414.468, 869.377 373.868, 806.473 305 C 778.949 274.867, 709.494 206.031, 645 144.968 C 612.825 114.504, 567.600 70.831, 544.500 47.917 C 497.716 1.509, 497.029 0.965, 484.500 0.337 C 479.455 0.084, 476.308 0.477, 473.230 1.743 M 476.591 177.064 C 466.753 179.508, 463.453 182.530, 391.035 255.425 C 312.990 333.983, 307.252 339.901, 281.897 368 C 272.219 378.725, 256.669 395.873, 247.340 406.106 C 187.991 471.209, 161.145 511.346, 145.075 559 C 137.261 582.175, 131.952 612.230, 131.811 634.101 C 131.686 653.311, 134.689 662.772, 143.485 670.879 C 152.329 679.031, 163.588 682.187, 184.500 682.374 C 192.200 682.443, 234.275 681.885, 278 681.134 C 370.764 679.540, 706.951 680.141, 755.349 681.987 C 794.299 683.473, 805.678 682.164, 817.959 674.781 C 824.376 670.924, 828.937 665.299, 832.148 657.282 C 834.274 651.977, 834.459 650.055, 834.397 634 C 834.181 577.861, 813.201 522.832, 770.535 466.500 C 754.488 445.312, 747.463 437.174, 701.058 386.019 C 655.937 336.279, 647.423 327.371, 596.847 277 C 570.617 250.875, 540.683 220.644, 530.328 209.821 C 519.972 198.997, 509.250 188.368, 506.500 186.201 C 496.051 177.967, 485.692 174.803, 476.591 177.064 M 0.435 651 C 0.435 665.025, 0.575 670.763, 0.747 663.750 C 0.919 656.737, 0.919 645.263, 0.747 638.250 C 0.575 631.237, 0.435 636.975, 0.435 651" stroke="none" fill="black" fill-rule="evenodd"/>
</svg>