<?xml version="1.0" encoding="utf-8"?>
<!-- Generator: Adobe Illustrator 16.0.0, SVG Export Plug-In . SVG Version: 6.00 Build 0)  -->
<!DOCTYPE svg PUBLIC "-//W3C//DTD SVG 1.1//EN" "http://www.w3.org/Graphics/SVG/1.1/DTD/svg11.dtd">
<svg version="1.1" xmlns="http://www.w3.org/2000/svg" xmlns:xlink="http://www.w3.org/1999/xlink" x="0px" y="0px"
	 width="502.757px" height="495.202px" viewBox="0 0 502.757 495.202" enable-background="new 0 0 502.757 495.202"
	 xml:space="preserve">
<g id="圖層_1" display="none">
	<path display="inline" fill-rule="evenodd" clip-rule="evenodd" d="M72.42,229.198c-2.082-66.462,3.308-132.625,7.564-198.859
		c2.381-36.998,21.29-54.921,58.026-55.039c18.797-0.062,37.586-0.532,56.379-0.828c77.122,0.245,154.247,0.34,231.372,0.803
		c54.364,0.333,73.02,15.872,73.846,68.479c1.521,97.474,1.308,195.016,0.021,292.51c-0.568,42.74-25.702,66.326-69.776,66.813
		c-94.59,1.036-189.192,0.36-283.791,0.411c-38.705,0.015-61.611-16.105-69.116-56.925C69.715,307.24,75.429,268.222,72.42,229.198z
		 M256.54,185.389c0,37.755,0.576,75.54-0.218,113.281c-0.466,22.335,11.886,26.113,30.427,26.249
		c19.199,0.138,29.919-5.265,29.73-26.971c-0.628-72.624-0.59-145.249-0.013-217.869c0.179-22.223-11.882-26.122-30.452-26.239
		c-19.205-0.121-30.262,5.276-29.748,26.975C257.096,115.653,256.489,150.53,256.54,185.389z M361.491,215
		c0,26.097,0.756,52.219-0.241,78.276c-0.811,21.345,5.767,32.074,29.364,31.866c21.896-0.187,31.509-7.223,31.056-30.226
		c-1.021-52.159-0.865-104.374-0.038-156.544c0.337-21.3-5.754-32.081-29.382-31.875c-21.92,0.199-32.037,7.261-31,30.236
		C362.431,162.768,361.523,188.909,361.491,215z M211.2,243.405c0-18.809-0.646-37.636,0.17-56.409
		c0.902-20.783-8.728-27.655-28.684-27.895c-21.46-0.263-32.234,6.181-31.508,29.544c1.128,36.131,0.905,72.34,0.111,108.493
		c-0.458,20.806,8.813,27.628,28.73,27.867c21.409,0.246,32.918-6.094,31.436-29.532C210.358,278.18,211.238,260.769,211.2,243.405z
		"/>
	<path display="inline" fill-rule="evenodd" clip-rule="evenodd" d="M-32.603,325.485c0.119-69.771,0.624-139.534,0.131-209.294
		c-0.152-21.438,2.249-36.025,29.864-36.025c27.265-0.011,30.669,13.859,30.217,35.684c-0.785,37.774-0.007,75.572,0.103,113.357
		c-0.042,64.163,0.873,128.342-0.585,192.47c-0.611,26.996,9.471,35.389,35.727,35.101c97.689-1.088,195.399-0.488,293.1-0.351
		c18.606,0.025,39.224-4.147,39.258,26.258c0.038,30.586-20.776,26.091-39.262,26.116c-103.536,0.152-207.072,0.452-310.602-0.07
		c-51.82-0.263-74.426-21.514-77.268-73.907C-33.89,398.468-32.492,361.932-32.603,325.485z"/>
</g>
<g id="圖層_2">
	<path fill-rule="evenodd" clip-rule="evenodd" d="M105.746,197.429c-0.04-46.744,0.218-93.479-0.122-140.214
		c-0.264-36.832,16.707-56.854,54.302-56.919C254.77,0.137,349.621-0.42,444.463,0.595c40.631,0.435,57.661,18.402,57.853,58.097
		c0.485,93.472-0.419,186.949,0.437,280.415c0.369,38.886-20.814,56.09-55.584,56.533c-97.572,1.247-195.186,1.119-292.767,0.016
		c-33.285-0.38-48.656-21.218-48.632-53.899C105.818,293.643,105.786,245.535,105.746,197.429z M304.254,139.718
		c0,12.349-0.611,24.741,0.129,37.047c1.264,20.967-3.237,28.057-27.861,23.38c-38.579-7.331-69.043,18.847-71.363,54.59
		c-2.192,33.632,21.57,63.813,52.705,66.93c37.707,3.772,68.39-22.892,70.72-63.352c1.488-25.997,2.156-52.295-0.024-78.189
		c-3.249-38.406,2.497-65.36,50.997-56.556c14.302,2.594,24.083-4.438,23.374-20.647c-0.452-10.465,2.126-21.485-11.938-27.34
		c-48.523-20.178-86.729,4.079-86.729,55.909C304.263,134.228,304.263,136.973,304.254,139.718z"/>
	<path fill-rule="evenodd" clip-rule="evenodd" d="M212.761,495.116c-46.688,0.032-93.386,0.176-140.082,0
		c-56.968-0.228-73.322-15.395-72.66-73.891c0.951-84.921,4.39-169.818,6.662-254.723c0.298-10.968,0.766-22.053-0.33-32.935
		c-1.716-17.079-11.021-35.209,20.75-35.089c29.176,0.114,29.387,16.09,29.272,37.118c-0.458,83.776-0.128,167.553-0.144,251.328
		c0,58.66-0.042,58.677,60.657,58.684c83.786,0.017,167.562,0.089,251.338-0.056c18.546-0.023,36.09-1.626,35.285,26.324
		c-0.757,25.961-17.77,23.152-34.174,23.177C317.144,495.148,264.961,495.092,212.761,495.116z"/>
</g>
</svg>
