<?xml version="1.0" encoding="utf-8"?>
<!-- Generator: Adobe Illustrator 16.0.3, SVG Export Plug-In . SVG Version: 6.00 Build 0)  -->
<!DOCTYPE svg PUBLIC "-//W3C//DTD SVG 1.1//EN" "http://www.w3.org/Graphics/SVG/1.1/DTD/svg11.dtd">
<svg version="1.1" id="圖層_1" xmlns="http://www.w3.org/2000/svg" xmlns:xlink="http://www.w3.org/1999/xlink" x="0px" y="0px"
	 width="120.254px" height="80.87px" viewBox="0 0 120.254 80.87" enable-background="new 0 0 120.254 80.87" xml:space="preserve">
<path fill-rule="evenodd" clip-rule="evenodd" fill="#FCBABA" d="M19.076,0c27.016,0.002,54.031,0.004,81.046,0.005
	c10.913,1.167,19.536,10.253,19.806,22.018c0.225,9.776,0.863,19.593-0.656,29.393c-0.701,4.516-2.911,8.04-5.237,11.662
	c-0.315,0.314-0.629,0.629-0.943,0.943c-7.256,5.739-15.815,6.146-24.521,6.052c-4.819-0.052-9.642,0.046-14.462,0.076
	c-4.656-0.2-6.219,4.015-8.912,6.466c-5.998,5.463-4.688,5.861-9.702,0.063c-4.569-5.284-9.656-7.102-16.519-6.768
	c-7.422,0.361-14.965,0.973-22.365-0.853C6.842,66.648,0.111,58.18,0.069,48.062C0.029,38.4,0.021,28.739,0,19.078
	C2.059,8.191,9.125,1.125,19.076,0z"/>
<path fill-rule="evenodd" clip-rule="evenodd" fill="#FEECEC" d="M59.619,4.082c12.163-0.005,24.337,0.314,36.485-0.1
	c10.958-0.373,19.512,6.213,19.845,18.788c0.25,9.443,0.819,18.936-0.765,28.383c-1.191,7.104-7.006,12.775-14.209,14.046
	c-7.63,1.346-15.286,1.074-22.884,0.715c-6.007-0.283-10.744,1.033-14.273,5.966c-2.391,3.342-4.793,3.679-7.299,0.116
	c-3.488-4.958-8.223-6.265-14.221-6.088c-8.104,0.238-16.275,0.939-24.381-0.747C10.1,63.534,4.202,57.019,4.121,49.121
	c-0.1-9.662-0.1-19.327,0.003-28.99c0.088-8.255,7.757-15.955,16.008-16.018C33.294,4.014,46.457,4.087,59.619,4.082z"/>
</svg>
