<?xml version="1.0" encoding="utf-8"?>
<!-- Generator: Adobe Illustrator 16.0.0, SVG Export Plug-In . SVG Version: 6.00 Build 0)  -->
<!DOCTYPE svg PUBLIC "-//W3C//DTD SVG 1.1//EN" "http://www.w3.org/Graphics/SVG/1.1/DTD/svg11.dtd">
<svg version="1.1" id="圖層_1" xmlns="http://www.w3.org/2000/svg" xmlns:xlink="http://www.w3.org/1999/xlink" x="0px" y="0px"
	 width="463.952px" height="544.123px" viewBox="219.973 25.579 463.952 544.123"
	 enable-background="new 219.973 25.579 463.952 544.123" xml:space="preserve">
<path d="M633.707,202.832C583.609,141.123,521.18,90.517,466.018,33.293c-5.51-5.715-10.049-7.76-14.068-7.713
	c-4.02-0.047-8.559,1.999-14.067,7.713c-55.163,57.224-117.593,107.83-167.691,169.539c-66.225,81.572-65.203,181.023-7.229,267.814
	c47.009,70.373,117.912,101.166,188.986,98.943c71.074,2.223,141.979-28.57,188.986-98.943
	C698.91,383.853,699.931,284.403,633.707,202.832z M589.387,353.312c-20.078-0.984-78.368-1.211-137.438-1.154
	c-59.069-0.057-117.36,0.17-137.437,1.154c-31.453,1.551-34.059-11.461-30.154-37.975c7.268-49.327,41.729-80.374,71.833-114.231
	c24.945-28.063,53.027-53.315,78.707-80.757c6.339-6.771,11.649-10.311,17.052-10.276c5.402-0.034,10.713,3.505,17.053,10.276
	c25.68,27.441,53.762,52.694,78.706,80.757c30.104,33.858,64.564,64.905,71.833,114.231
	C623.443,341.851,620.841,354.863,589.387,353.312z"/>
</svg>
