<?xml version="1.0" encoding="utf-8"?>
<!-- Generator: Adobe Illustrator 16.0.0, SVG Export Plug-In . SVG Version: 6.00 Build 0)  -->
<!DOCTYPE svg PUBLIC "-//W3C//DTD SVG 1.1//EN" "http://www.w3.org/Graphics/SVG/1.1/DTD/svg11.dtd">
<svg version="1.1" id="圖層_1" xmlns="http://www.w3.org/2000/svg" xmlns:xlink="http://www.w3.org/1999/xlink" x="0px" y="0px"
	 width="606.106px" height="231.882px" viewBox="0 0 606.106 231.882" enable-background="new 0 0 606.106 231.882"
	 xml:space="preserve">
<path fill-rule="evenodd" clip-rule="evenodd" d="M0.182,115.348c0-32.312,0.441-64.632-0.167-96.933
	C-0.335-0.222,5.245-4.597,22.02,5.266c48.934,28.769,98.235,56.899,147.405,85.249c33.21,19.149,36.229,17.393,36.384-21.013
	c0.069-17.621,0.442-35.254,0-52.873c-0.453-17.684,5.988-20.595,20.88-11.897c48.157,28.144,96.621,55.777,144.919,83.682
	c28.875,16.689,33.198,14.491,33.738-17.913c0.298-17.622-0.059-35.254,0.464-52.867c0.448-15.142,7.768-19.085,21.052-11.484
	c55.227,31.574,110.503,63.047,165.654,94.751c15.522,8.918,20.248,17.953,0.764,28.915
	c-53.734,30.232-107.134,61.048-160.546,91.847c-17.497,10.092-27.664,8.267-27.308-14.656c0.274-17.624-0.414-35.26,0.011-52.872
	c0.507-20.896-5.689-27.062-25.598-15.189c-48.75,29.053-98.574,56.328-147.055,85.807c-20.402,12.406-27.866,9.288-27.205-14.604
	c0.568-20.541-0.476-41.139,0.207-61.673c0.798-23.841-8.984-24.214-26.362-13.904c-49.652,29.468-99.619,58.425-149.482,87.535
	C3.391,237.616,0.561,236.231,0.251,206.409C-0.071,176.051,0.176,145.702,0.182,115.348z"/>
</svg>
