<?xml version="1.0" encoding="utf-8"?>
<!-- Generator: Adobe Illustrator 16.0.0, SVG Export Plug-In . SVG Version: 6.00 Build 0)  -->
<!DOCTYPE svg PUBLIC "-//W3C//DTD SVG 1.1//EN" "http://www.w3.org/Graphics/SVG/1.1/DTD/svg11.dtd">
<svg version="1.1" id="圖層_1" focusable="false" xmlns="http://www.w3.org/2000/svg" xmlns:xlink="http://www.w3.org/1999/xlink"
	 x="0px" y="0px" width="558.076px" height="446.456px" viewBox="86.099 74.415 558.076 446.456"
	 enable-background="new 86.099 74.415 558.076 446.456" xml:space="preserve">
<path d="M336.106,82.607L232.664,186.025h-118.66c-15.417,0-27.904,12.487-27.904,27.904v167.422
	c0,15.406,12.487,27.904,27.904,27.904h118.66l103.442,103.418c17.475,17.475,47.634,5.197,47.634-19.73V102.337
	C383.74,77.386,353.557,65.155,336.106,82.607z"/>
<path d="M644.176,297.64c0-73.864-37.275-141.774-99.722-181.653c-13.01-8.302-30.264-4.441-38.507,8.673
	s-4.395,30.473,8.615,38.786c46.216,29.52,73.806,79.677,73.806,134.194c0,54.518-27.59,104.674-73.806,134.193
	c-13.01,8.303-16.858,25.66-8.615,38.787c7.568,12.045,24.555,17.602,38.507,8.674C606.9,439.414,644.176,371.515,644.176,297.64z"
	/>
<path d="M479.345,208.267c-13.464-7.359-30.45-2.511-37.914,10.987c-7.43,13.499-2.512,30.461,10.986,37.914
	c15.011,8.243,24.335,23.765,24.335,40.472c0,16.719-9.324,32.229-24.323,40.473c-13.498,7.451-18.416,24.416-10.986,37.914
	c7.476,13.557,24.474,18.369,37.914,10.986c32.821-18.078,53.215-52.318,53.215-89.385
	C532.572,260.563,512.178,226.334,479.345,208.267L479.345,208.267z"/>
</svg>
